<?xml version="1.0" encoding="UTF-8"?>
<svg id="Layer_2" data-name="Layer 2" xmlns="http://www.w3.org/2000/svg" xmlns:xlink="http://www.w3.org/1999/xlink" viewBox="0 0 843.75 164.3">
  <defs>
    <style>
      .cls-1 {
        fill: url(#linear-gradient);
      }

      .cls-1, .cls-2, .cls-3, .cls-4 {
        stroke-width: 0px;
      }

      .cls-2 {
        fill: url(#linear-gradient-2);
      }

      .cls-3 {
        fill: url(#linear-gradient-3);
      }

      .cls-4 {
        fill: #fff;
      }
    </style>
    <linearGradient id="linear-gradient" x1="628.19" y1="-.67" x2="597.4" y2="41.14" gradientUnits="userSpaceOnUse">
      <stop offset="0" stop-color="#7213ff"/>
      <stop offset="1" stop-color="#de70e2"/>
    </linearGradient>
    <linearGradient id="linear-gradient-2" x1="131.61" y1="-5.1" x2="46.22" y2="83.16" xlink:href="#linear-gradient"/>
    <linearGradient id="linear-gradient-3" x1="188.87" y1="28.64" x2="7.69" y2="215.9" xlink:href="#linear-gradient"/>
  </defs>
  <g id="Layer_1-2" data-name="Layer 1">
    <g>
      <rect class="cls-1" x="596" y="17.56" width="21.53" height="21.73" rx="4.38" ry="4.38"/>
      <g>
        <g>
          <path class="cls-4" d="M421.47,52.57c-15.07,0-27.5,4.51-38.02,13.79-10.33,9.09-15.57,21.35-15.57,36.44v11.47c0,15.11,5.29,27.03,16.19,36.46,10.64,9,23.88,13.56,39.37,13.56,19.36,0,35.78-8.21,45.66-22.67,1.26-1.84.88-4.35-.84-5.77l-6.48-5.38c-1.89-1.57-4.68-1.23-6.21.7-7.85,9.8-18.31,14.76-31.15,14.76-10.61,0-19.31-2.94-25.84-8.73-6.13-5.6-9.4-12.85-9.75-21.56h84.43v-12.25c0-15.66-5.1-28.18-15.14-37.2-9.86-9.04-22.2-13.62-36.67-13.62ZM453.02,98.46h-64.04c1.68-17.04,14.56-28.32,32.7-28.32s29.93,10.79,31.35,28.32Z"/>
          <rect class="cls-4" x="557.6" y="14.79" width="21.33" height="146.94" rx="4.38" ry="4.38"/>
          <rect class="cls-4" x="596" y="55.14" width="21.53" height="106.59" rx="4.38" ry="4.38"/>
          <path class="cls-4" d="M485.5,88.46v68.89c0,2.42,1.96,4.38,4.38,4.38h12.58c2.42,0,4.38-1.96,4.38-4.38v-68.26c0-7.2,5.84-13.04,13.04-13.04h24.32c2.42,0,4.38-1.96,4.38-4.38v-12.15c0-2.42-1.96-4.38-4.38-4.38h-25.38c-18.4,0-33.32,14.92-33.32,33.32Z"/>
          <path class="cls-4" d="M687.85,52.04h-13.1c-23.67,0-42.87,19.19-42.87,42.87v62.44c0,2.42,1.96,4.38,4.38,4.38h12.84c2.42,0,4.38-1.96,4.38-4.38v-62.44c0-11.75,9.52-21.27,21.27-21.27h13.1c11.74,0,21.27,9.52,21.27,21.27v62.45c0,2.42,1.96,4.38,4.38,4.38h12.84c2.42,0,4.38-1.96,4.38-4.38v-62.44c0-23.67-19.19-42.87-42.87-42.87Z"/>
          <path class="cls-4" d="M800.89,52.04h-13.1c-23.67,0-42.87,19.19-42.87,42.87v62.44c0,2.42,1.96,4.38,4.38,4.38h12.84c2.42,0,4.38-1.96,4.38-4.38v-62.44c0-11.75,9.52-21.27,21.27-21.27h13.1c11.74,0,21.27,9.52,21.27,21.27v62.45c0,2.42,1.96,4.38,4.38,4.38h12.84c2.42,0,4.38-1.96,4.38-4.38v-62.44c0-23.67-19.19-42.87-42.87-42.87Z"/>
          <path class="cls-4" d="M240.64,52.04h-7.04c-23.67,0-42.87,19.19-42.87,42.87v62.44c0,2.42,1.96,4.38,4.38,4.38h12.84c2.42,0,4.38-1.96,4.38-4.38v-62.44c0-11.75,9.52-21.27,21.27-21.27h7.04c11.74,0,21.27,9.52,21.27,21.27v62.45c0,2.42,1.96,4.38,4.38,4.38h12.84c2.42,0,4.38-1.96,4.38-4.38v-62.44c0-23.67-19.19-42.87-42.87-42.87Z"/>
          <path class="cls-4" d="M311.82,52.04h-7.04c-23.67,0-42.87,19.19-42.87,42.87v62.44c0,2.42,1.96,4.38,4.38,4.38h12.84c2.42,0,4.38-1.96,4.38-4.38v-62.44c0-11.75,9.52-21.27,21.27-21.27h7.04c11.74,0,21.27,9.52,21.27,21.27v62.45c0,2.42,1.96,4.38,4.38,4.38h12.84c2.42,0,4.38-1.96,4.38-4.38v-62.44c0-23.67-19.19-42.87-42.87-42.87Z"/>
        </g>
        <g>
          <path class="cls-2" d="M128.98,47.62l-26.93-8.48L82.92,1.41c-.78-1.54-2.82-1.89-4.07-.7l-15.07,14.3,10.89-3.5-11.96,23.6c8.2,3.07,19.97,5.02,29.05,4.03-15.31,5.44-31.09,0-31.09,0l-26.93,8.47s15.1,8.03,47.62,8.03,47.62-8.03,47.62-8.03Z"/>
          <path class="cls-3" d="M161.97,153.7l-53.15-89.18s-4.86,65.4-33.11,68.37c-11.59.89-15.76-10.7-15.76-10.7,0,0,8.29,7.84,15.64,3.16,7.36-4.68,1.78-15.61-4.94-27.76-4.64-8.39-14.97-25.45-17.87-31.21L.76,153.7c-2.11,3.54.44,8.02,4.56,8.02h152.09c4.12,0,6.67-4.49,4.56-8.02Z"/>
        </g>
      </g>
    </g>
  </g>
</svg>